HIERARCHY
ROOT newVegas:Hips
{
	OFFSET 0.000000 96.479958 0.000000
	CHANNELS 6 Xposition Yposition Zposition Xrotation Yrotation Zrotation
	JOINT newVegas:Pelvis
	{
		OFFSET 0.000000 0.000000 0.000000
		CHANNELS 3 Xrotation Yrotation Zrotation
		JOINT newVegas:LeftUpLeg
		{
			OFFSET 18.735201 -5.666702 -4.541200
			CHANNELS 3 Xrotation Yrotation Zrotation
			JOINT newVegas:LeftLeg
			{
				OFFSET -0.021200 -31.938179 0.493100
				CHANNELS 3 Xrotation Yrotation Zrotation
				JOINT newVegas:LeftFoot
				{
					OFFSET 0.021200 -31.938179 -4.336299
					CHANNELS 3 Xrotation Yrotation Zrotation
					JOINT newVegas:LeftToeBase
					{
						OFFSET 0.943001 -26.722000 15.023500
						CHANNELS 3 Xrotation Yrotation Zrotation
						End Site
						{
							OFFSET 0.000000 30.670183 0.000000
						}
					}
				}
				JOINT newVegas:Left_PantLeg
				{
					OFFSET 0.663870 -9.044666 -1.108900
					CHANNELS 3 Xrotation Yrotation Zrotation
					End Site
					{
						OFFSET 1.415995 20.635357 0.000000
					}
				}
			}
		}
		JOINT newVegas:RightUpLeg
		{
			OFFSET -18.735201 -5.666702 -4.541200
			CHANNELS 3 Xrotation Yrotation Zrotation
			JOINT newVegas:RightLeg
			{
				OFFSET 0.018946 -31.938133 0.493100
				CHANNELS 3 Xrotation Yrotation Zrotation
				JOINT newVegas:RightFoot
				{
					OFFSET -0.018946 -31.938126 -4.336299
					CHANNELS 3 Xrotation Yrotation Zrotation
					JOINT newVegas:RightToeBase
					{
						OFFSET -0.943001 -26.722004 15.023500
						CHANNELS 3 Xrotation Yrotation Zrotation
						End Site
						{
							OFFSET 0.000000 30.670187 0.000000
						}
					}
				}
				JOINT newVegas:Right_PantLeg
				{
					OFFSET -0.661674 -9.044716 -1.108900
					CHANNELS 3 Xrotation Yrotation Zrotation
					End Site
					{
						OFFSET -1.415958 20.635269 0.000000
					}
				}
			}
		}
	}
	JOINT newVegas:Spine
	{
		OFFSET 0.000000 10.199997 -0.299500
		CHANNELS 3 Xrotation Yrotation Zrotation
		JOINT newVegas:Spine1
		{
			OFFSET 0.000000 11.900002 -1.516600
			CHANNELS 3 Xrotation Yrotation Zrotation
			JOINT newVegas:Spine2
			{
				OFFSET 0.000000 13.600006 -2.842500
				CHANNELS 3 Xrotation Yrotation Zrotation
				JOINT newVegas:Neck
				{
					OFFSET 0.000000 9.624100 -2.890100
					CHANNELS 3 Xrotation Yrotation Zrotation
					JOINT newVegas:Head
					{
						OFFSET 0.000000 14.068802 -1.351900
						CHANNELS 3 Xrotation Yrotation Zrotation
						JOINT newVegas:Hair_Back
						{
							OFFSET 0.000000 3.231903 -17.524799
							CHANNELS 3 Xrotation Yrotation Zrotation
							End Site
							{
								OFFSET 0.000000 19.849884 0.000000
							}
						}
						JOINT newVegas:Hair_Front
						{
							OFFSET 0.000000 31.260406 4.573800
							CHANNELS 3 Xrotation Yrotation Zrotation
							JOINT newVegas:Hair_Front1
							{
								OFFSET 0.000000 2.284103 11.993300
								CHANNELS 3 Xrotation Yrotation Zrotation
								JOINT newVegas:Hair_Front2
								{
									OFFSET 0.000000 2.284103 11.993300
									CHANNELS 3 Xrotation Yrotation Zrotation
									End Site
									{
										OFFSET 0.000000 12.208862 0.000000
									}
								}
							}
						}
						JOINT newVegas:Jowel
						{
							OFFSET 0.000000 -7.458206 6.864100
							CHANNELS 3 Xrotation Yrotation Zrotation
							End Site
							{
								OFFSET 0.000000 19.849884 0.000000
							}
						}
					}
				}
				JOINT newVegas:LeftShoulder
				{
					OFFSET 15.263000 10.923401 -0.547700
					CHANNELS 3 Xrotation Yrotation Zrotation
					JOINT newVegas:LeftArm
					{
						OFFSET 25.438599 -2.830597 -13.032500
						CHANNELS 3 Xrotation Yrotation Zrotation
						JOINT newVegas:LeftForeArm
						{
							OFFSET 29.960503 0.000000 0.000000
							CHANNELS 3 Xrotation Yrotation Zrotation
							JOINT newVegas:LeftHand
							{
								OFFSET 27.849251 0.000000 0.000000
								CHANNELS 3 Xrotation Yrotation Zrotation
								JOINT newVegas:LeftHandThumb1
								{
									OFFSET 4.487587 -3.305161 6.305391
									CHANNELS 3 Xrotation Yrotation Zrotation
									JOINT newVegas:LeftHandThumb2
									{
										OFFSET 5.480453 -3.164139 3.164143
										CHANNELS 3 Xrotation Yrotation Zrotation
										JOINT newVegas:LeftHandThumb3
										{
											OFFSET 5.159721 -2.978973 2.978967
											CHANNELS 3 Xrotation Yrotation Zrotation
											End Site
											{
												OFFSET 2.494507 5.926697 1.738678
											}
										}
									}
								}
								JOINT newVegas:LeftHandIndex1
								{
									OFFSET 18.578728 -0.527832 5.208049
									CHANNELS 3 Xrotation Yrotation Zrotation
									JOINT newVegas:LeftHandIndex2
									{
										OFFSET 3.192009 0.000000 0.000000
										CHANNELS 3 Xrotation Yrotation Zrotation
										JOINT newVegas:LeftHandIndex3
										{
											OFFSET 3.835129 0.000000 0.000000
											CHANNELS 3 Xrotation Yrotation Zrotation
											End Site
											{
												OFFSET -0.034599 3.816971 0.371180
											}
										}
									}
								}
								JOINT newVegas:LeftHandMiddle1
								{
									OFFSET 18.476105 0.000000 0.000000
									CHANNELS 3 Xrotation Yrotation Zrotation
									JOINT newVegas:LeftHandMiddle2
									{
										OFFSET 3.324875 0.000000 0.000000
										CHANNELS 3 Xrotation Yrotation Zrotation
										JOINT newVegas:LeftHandMiddle3
										{
											OFFSET 4.596550 0.000000 0.000000
											CHANNELS 3 Xrotation Yrotation Zrotation
											End Site
											{
												OFFSET 0.057701 4.578827 0.399218
											}
										}
									}
								}
								JOINT newVegas:LeftHandRing1
								{
									OFFSET 17.732719 0.121887 -4.201567
									CHANNELS 3 Xrotation Yrotation Zrotation
									JOINT newVegas:LeftHandRing2
									{
										OFFSET 2.733170 0.000000 0.000000
										CHANNELS 3 Xrotation Yrotation Zrotation
										JOINT newVegas:LeftHandRing3
										{
											OFFSET 3.178268 0.000000 0.000000
											CHANNELS 3 Xrotation Yrotation Zrotation
											End Site
											{
												OFFSET 0.119102 3.170624 0.185394
											}
										}
									}
								}
								JOINT newVegas:LeftHandPinky1
								{
									OFFSET 15.989624 -0.606689 -7.535461
									CHANNELS 3 Xrotation Yrotation Zrotation
									JOINT newVegas:LeftHandPinky2
									{
										OFFSET 2.538986 0.000000 0.000000
										CHANNELS 3 Xrotation Yrotation Zrotation
										JOINT newVegas:LeftHandPinky3
										{
											OFFSET 2.593102 0.000000 0.000000
											CHANNELS 3 Xrotation Yrotation Zrotation
											End Site
											{
												OFFSET -0.150902 2.584198 0.152708
											}
										}
									}
								}
							}
							JOINT newVegas:Left_Sleeve
							{
								OFFSET 0.267448 -0.649796 0.577675
								CHANNELS 3 Xrotation Yrotation Zrotation
								End Site
								{
									OFFSET 0.000000 15.991241 0.000000
								}
							}
							JOINT newVegas:Left_CapeC
							{
								OFFSET 15.715958 -8.608795 -6.935905
								CHANNELS 3 Xrotation Yrotation Zrotation
								JOINT newVegas:Left_CapeC1
								{
									OFFSET 0.000000 -8.688499 0.000000
									CHANNELS 3 Xrotation Yrotation Zrotation
									End Site
									{
										OFFSET 0.000000 8.688499 0.000000
									}
								}
							}
						}
						JOINT newVegas:Left_CapeB
						{
							OFFSET 26.118385 -8.608795 -7.079235
							CHANNELS 3 Xrotation Yrotation Zrotation
							JOINT newVegas:Left_CapeB1
							{
								OFFSET 0.000000 -8.688499 0.000000
								CHANNELS 3 Xrotation Yrotation Zrotation
								End Site
								{
									OFFSET 0.000000 8.688499 0.000000
								}
							}
						}
						JOINT newVegas:Left_CapeA
						{
							OFFSET 5.115639 -8.608795 -10.395809
							CHANNELS 3 Xrotation Yrotation Zrotation
							JOINT newVegas:Left_CapeA1
							{
								OFFSET 0.000000 -8.688499 0.000000
								CHANNELS 3 Xrotation Yrotation Zrotation
								End Site
								{
									OFFSET 0.000000 8.688499 0.000000
								}
							}
						}
					}
				}
				JOINT newVegas:RightShoulder
				{
					OFFSET -15.263000 10.923401 -0.547700
					CHANNELS 3 Xrotation Yrotation Zrotation
					JOINT newVegas:RightArm
					{
						OFFSET -25.438599 -2.830597 -13.032500
						CHANNELS 3 Xrotation Yrotation Zrotation
						JOINT newVegas:RightForeArm
						{
							OFFSET -29.960503 0.000000 0.000000
							CHANNELS 3 Xrotation Yrotation Zrotation
							JOINT newVegas:RightHand
							{
								OFFSET -27.849251 0.000000 0.000000
								CHANNELS 3 Xrotation Yrotation Zrotation
								JOINT newVegas:RightHandThumb1
								{
									OFFSET -4.487587 -3.305161 6.305391
									CHANNELS 3 Xrotation Yrotation Zrotation
									JOINT newVegas:RightHandThumb2
									{
										OFFSET -5.480453 -3.164139 3.164143
										CHANNELS 3 Xrotation Yrotation Zrotation
										JOINT newVegas:RightHandThumb3
										{
											OFFSET -5.159721 -2.978973 2.978967
											CHANNELS 3 Xrotation Yrotation Zrotation
											End Site
											{
												OFFSET -2.494507 5.926697 1.738678
											}
										}
									}
								}
								JOINT newVegas:RightHandIndex1
								{
									OFFSET -18.578728 -0.527832 5.208049
									CHANNELS 3 Xrotation Yrotation Zrotation
									JOINT newVegas:RightHandIndex2
									{
										OFFSET -3.192009 0.000000 0.000000
										CHANNELS 3 Xrotation Yrotation Zrotation
										JOINT newVegas:RightHandIndex3
										{
											OFFSET -3.835129 0.000000 0.000000
											CHANNELS 3 Xrotation Yrotation Zrotation
											End Site
											{
												OFFSET 0.034599 3.816971 0.371180
											}
										}
									}
								}
								JOINT newVegas:RightHandMiddle1
								{
									OFFSET -18.476105 0.000000 0.000000
									CHANNELS 3 Xrotation Yrotation Zrotation
									JOINT newVegas:RightHandMiddle2
									{
										OFFSET -3.324875 0.000000 0.000000
										CHANNELS 3 Xrotation Yrotation Zrotation
										JOINT newVegas:RightHandMiddle3
										{
											OFFSET -4.596550 0.000000 0.000000
											CHANNELS 3 Xrotation Yrotation Zrotation
											End Site
											{
												OFFSET -0.057701 4.578827 0.399218
											}
										}
									}
								}
								JOINT newVegas:RightHandRing1
								{
									OFFSET -17.732719 0.121887 -4.201567
									CHANNELS 3 Xrotation Yrotation Zrotation
									JOINT newVegas:RightHandRing2
									{
										OFFSET -2.733170 0.000000 0.000000
										CHANNELS 3 Xrotation Yrotation Zrotation
										JOINT newVegas:RightHandRing3
										{
											OFFSET -3.178268 0.000000 0.000000
											CHANNELS 3 Xrotation Yrotation Zrotation
											End Site
											{
												OFFSET -0.119102 3.170624 0.185394
											}
										}
									}
								}
								JOINT newVegas:RightHandPinky1
								{
									OFFSET -15.989624 -0.606689 -7.535461
									CHANNELS 3 Xrotation Yrotation Zrotation
									JOINT newVegas:RightHandPinky2
									{
										OFFSET -2.538986 0.000000 0.000000
										CHANNELS 3 Xrotation Yrotation Zrotation
										JOINT newVegas:RightHandPinky3
										{
											OFFSET -2.593102 0.000000 0.000000
											CHANNELS 3 Xrotation Yrotation Zrotation
											End Site
											{
												OFFSET 0.150902 2.584198 0.152708
											}
										}
									}
								}
							}
							JOINT newVegas:Right_CapeC
							{
								OFFSET -15.715958 -8.608795 -6.935905
								CHANNELS 3 Xrotation Yrotation Zrotation
								JOINT newVegas:Right_CapeC1
								{
									OFFSET 0.000000 -8.688499 0.000000
									CHANNELS 3 Xrotation Yrotation Zrotation
									End Site
									{
										OFFSET 0.000000 8.688499 0.000000
									}
								}
							}
							JOINT newVegas:Right_Sleeve
							{
								OFFSET -0.267448 -0.649994 0.577675
								CHANNELS 3 Xrotation Yrotation Zrotation
								End Site
								{
									OFFSET 0.000000 15.991302 0.000000
								}
							}
						}
						JOINT newVegas:Right_CapeA
						{
							OFFSET -5.115540 -8.608795 -10.395824
							CHANNELS 3 Xrotation Yrotation Zrotation
							JOINT newVegas:Right_CapeA1
							{
								OFFSET 0.000000 -8.688499 0.000000
								CHANNELS 3 Xrotation Yrotation Zrotation
								End Site
								{
									OFFSET 0.000000 8.688499 0.000000
								}
							}
						}
						JOINT newVegas:Right_CapeB
						{
							OFFSET -26.118187 -8.608795 -7.079266
							CHANNELS 3 Xrotation Yrotation Zrotation
							JOINT newVegas:Right_CapeB1
							{
								OFFSET 0.000000 -8.688499 0.000000
								CHANNELS 3 Xrotation Yrotation Zrotation
								End Site
								{
									OFFSET 0.000000 8.688499 0.000000
								}
							}
						}
					}
				}
				JOINT newVegas:Left_Collar
				{
					OFFSET 18.625099 8.655502 8.828100
					CHANNELS 3 Xrotation Yrotation Zrotation
					JOINT newVegas:Left_Collar1
					{
						OFFSET 14.783401 10.540405 -1.259500
						CHANNELS 3 Xrotation Yrotation Zrotation
						End Site
						{
							OFFSET 0.000000 18.199875 0.000000
						}
					}
				}
				JOINT newVegas:Collar_Back
				{
					OFFSET 0.000000 15.630707 -20.132601
					CHANNELS 3 Xrotation Yrotation Zrotation
					End Site
					{
						OFFSET 0.000000 22.523010 0.000000
					}
				}
				JOINT newVegas:Left_Peck
				{
					OFFSET 17.239599 -5.132599 25.482599
					CHANNELS 3 Xrotation Yrotation Zrotation
					End Site
					{
						OFFSET 0.000000 22.523010 0.000000
					}
				}
				JOINT newVegas:Right_Peck
				{
					OFFSET -17.239599 -5.132202 25.482599
					CHANNELS 3 Xrotation Yrotation Zrotation
					End Site
					{
						OFFSET 0.000000 22.523010 0.000000
					}
				}
				JOINT newVegas:Right_Collar
				{
					OFFSET -18.625099 8.655792 8.828100
					CHANNELS 3 Xrotation Yrotation Zrotation
					JOINT newVegas:Right_Collar1
					{
						OFFSET -14.783401 10.539993 -1.259500
						CHANNELS 3 Xrotation Yrotation Zrotation
						End Site
						{
							OFFSET 0.000000 18.199631 0.000000
						}
					}
				}
			}
		}
		JOINT newVegas:Belly
		{
			OFFSET 0.000000 -6.540398 9.014299
			CHANNELS 3 Xrotation Yrotation Zrotation
			End Site
			{
				OFFSET 0.000000 11.566666 0.000000
			}
		}
	}
	JOINT newVegas:ElvisFacialAnim_Joint
	{
		OFFSET 1.000000 -95.330101 -8.825800
		CHANNELS 3 Xrotation Yrotation Zrotation
		End Site
		{
			OFFSET 0.000000 35.315800 0.000000
		}
	}
}
MOTION
Frames: 4
Frame Time: 0.033333
-2.928101 82.811790 7.158269 42.093653 -81.729497 42.547574 -0.000000 0.000000 -0.000000 -34.992651 13.023180 40.959261 48.541410 -6.436094 -11.099857 -12.861917 10.985030 -17.782563 0.000000 0.000004 -0.000000 0.000003 0.000000 0.000002 -35.744702 7.562748 -27.127609 59.882263 9.790535 8.295702 -25.717969 5.475023 7.128290 0.000000 0.000000 0.000001 -0.000000 0.000000 -0.000001 0.270241 3.287266 -1.547483 -1.356189 6.672261 -0.592120 -1.323637 6.681605 -0.537881 0.623017 6.787032 -0.139334 0.623011 6.787052 -0.139337 0.000000 -0.000002 0.000000 0.622946 6.787065 -0.139330 0.623091 6.787071 -0.139350 -0.000000 -0.000002 0.000000 0.000000 -0.000002 0.000000 -4.187312 6.020399 -4.069382 9.899242 -7.015392 -20.644375 -0.000032 -120.404583 -0.000024 -41.341021 -10.066351 29.408855 2.109521 12.551553 5.943564 5.648394 28.305909 0.051801 0.000003 0.000000 -0.000003 6.952519 6.880820 -90.595315 6.952503 6.880823 -90.595342 -0.000002 0.000001 0.000001 6.950571 6.880847 -90.579093 6.954461 6.880789 -90.611523 -0.000001 0.000001 0.000000 6.952504 6.880794 -90.595301 6.952520 6.880808 -90.595329 0.000002 0.000001 0.000000 11.035859 6.839495 -90.572830 6.953837 2.794561 -90.611011 -0.000001 -0.000002 -0.000001 0.000001 -0.000000 0.000000 0.000001 -0.000000 0.000000 -0.000000 -0.000000 0.000000 -0.000001 -0.000001 0.000001 -0.000001 -0.000001 -0.000001 -0.000001 -0.000001 0.000001 -0.000001 -0.000001 0.000001 0.671189 5.503802 0.253111 -17.091068 44.781562 62.949496 -0.000058 109.373028 0.000041 -16.701179 7.252112 0.575878 -1.895238 -6.833285 -7.092710 16.282213 -40.368440 -0.004899 0.000001 -0.000003 0.000001 6.400906 -6.926758 85.471034 6.400930 -6.926739 85.471054 -0.000001 -0.000001 -0.000001 6.400900 -6.926726 85.471041 6.400902 -6.926720 85.471027 0.000001 -0.000005 -0.000001 6.400901 -6.926709 85.471034 6.400911 -6.926714 85.471027 0.000002 0.000002 0.000003 6.400926 -6.926776 85.471041 6.400896 -6.926714 85.471027 0.000000 -0.000000 0.000000 -0.000001 0.000001 -0.000002 -0.000001 0.000000 -0.000001 -0.000001 0.000001 -0.000002 -0.000002 0.000001 -0.000000 -0.000003 0.000001 -0.000000 -0.000002 0.000001 -0.000000 -0.000003 0.000001 0.000002 -0.000000 -0.000000 -0.000000 -0.000000 -0.000000 -0.000000 -0.000000 -0.000000 -0.000000 -0.000000 -0.000000 -0.000000 -0.000000 -0.000000 -0.000000 -0.000000 -0.000000 -0.000000 -0.000000 -0.000000 -0.000000 0.000000 -0.000000 -0.000000 -0.000000 0.000000 -0.000000 
-3.011545 82.602585 7.088185 46.369024 -81.319679 47.574252 -0.000000 0.000001 -0.000000 -35.395963 13.598621 40.086445 48.417531 -6.481913 -11.065443 -12.671335 11.863794 -17.741314 -0.000000 0.000002 -0.000000 0.000001 -0.000003 0.000001 -38.671179 5.280639 -28.339698 61.930951 5.217166 4.813245 -26.143183 11.707626 11.310246 0.000000 0.000000 0.000000 0.000002 0.000000 0.000000 -0.331970 3.305328 -1.711057 -1.988383 6.739696 -0.937571 -1.920650 6.752797 -0.960415 0.907796 6.766233 -0.101072 0.907766 6.766227 -0.101018 0.000001 -0.000001 0.000000 0.907783 6.766289 -0.101051 0.907841 6.766005 -0.101003 -0.000000 -0.000002 -0.000000 0.000001 -0.000001 -0.000000 -4.906326 6.357788 -4.431651 9.907305 -6.780676 -20.464546 -0.000001 -119.729910 0.000001 -41.494878 -9.670038 29.281421 2.109519 12.551558 5.943579 5.648339 28.305916 0.051821 -0.000001 -0.000003 -0.000003 6.902637 6.881177 -90.179008 6.902648 6.881150 -90.179022 -0.000001 -0.000003 0.000001 6.900671 6.881158 -90.162793 6.904575 6.881118 -90.195237 -0.000003 0.000001 0.000001 6.902619 6.881135 -90.179022 6.902654 6.881130 -90.179029 0.000003 -0.000002 -0.000003 10.986292 6.869284 -90.157636 6.904265 2.794886 -90.198303 0.000002 -0.000002 -0.000002 -0.000002 0.000000 0.000000 -0.000002 0.000000 0.000000 -0.000003 0.000000 0.000000 -0.000000 -0.000002 -0.000002 -0.000000 -0.000002 -0.000002 -0.000000 -0.000002 -0.000002 -0.000000 -0.000002 -0.000002 -1.009370 5.994136 0.328280 -16.224298 44.946193 64.157640 0.000133 108.608088 -0.000141 -16.731370 7.072483 -0.613529 -1.895236 -6.833299 -7.092717 16.282206 -40.368440 -0.004912 -0.000000 0.000001 0.000003 6.401016 -6.926774 85.471806 6.400969 -6.926752 85.471560 -0.000000 -0.000001 -0.000000 6.401005 -6.926756 85.471812 6.400978 -6.926728 85.471560 0.000002 0.000001 0.000001 6.400997 -6.926728 85.471812 6.400986 -6.926741 85.471573 0.000004 -0.000001 -0.000002 6.401025 -6.926782 85.471812 6.400960 -6.926726 85.471567 0.000000 0.000008 0.000002 -0.000000 0.000001 -0.000001 -0.000002 0.000000 -0.000001 -0.000000 0.000001 -0.000001 0.000003 0.000001 0.000001 0.000002 0.000001 -0.000001 0.000003 0.000001 0.000001 0.000002 0.000001 0.000001 0.000000 0.000000 -0.000000 0.000000 0.000000 -0.000000 0.000000 0.000000 -0.000000 0.000000 0.000000 -0.000000 0.000000 0.000000 -0.000000 0.000000 0.000000 -0.000000 0.000000 0.000000 -0.000000 0.000000 -0.000001 0.000000 -0.000000 0.000001 -0.000000 
-3.147809 82.510193 7.019353 49.204324 -81.188157 50.969194 0.000000 0.000000 -0.000000 -35.144486 14.165265 39.397808 48.002740 -6.386606 -11.039304 -12.571058 12.646603 -17.848720 0.000000 -0.000002 0.000000 0.000001 -0.000003 0.000002 -40.514251 4.184493 -29.198645 62.893857 2.004897 2.731431 -26.380994 15.957106 14.335146 0.000000 0.000001 -0.000000 -0.000001 0.000000 -0.000000 -0.880836 3.345588 -1.831452 -2.457570 6.811430 -1.184592 -2.375789 6.825515 -1.248909 1.127403 6.750593 -0.100029 1.127403 6.750588 -0.100029 0.000000 -0.000005 0.000000 1.127403 6.750601 -0.100029 1.127403 6.750563 -0.100024 0.000000 -0.000002 0.000000 0.000000 -0.000005 0.000000 -5.621309 6.644718 -4.616801 10.015404 -6.716201 -20.245094 0.000037 -119.096656 0.000026 -41.620434 -9.112070 29.013373 2.109492 12.551550 5.943579 5.648378 28.305911 0.051818 -0.000000 -0.000003 -0.000005 6.857238 6.881169 -89.800206 6.857248 6.881143 -89.800219 -0.000000 0.000000 0.000000 6.855275 6.881133 -89.783984 6.859194 6.881150 -89.816434 -0.000000 0.000001 0.000002 6.857215 6.881133 -89.800185 6.857264 6.881145 -89.800213 0.000002 -0.000004 -0.000003 10.941017 6.896060 -89.779784 6.859153 2.794899 -89.822711 0.000001 -0.000004 0.000003 -0.000001 0.000000 -0.000001 -0.000001 0.000000 -0.000001 -0.000002 0.000000 -0.000001 0.000000 0.000000 0.000000 -0.000000 0.000001 -0.000001 0.000000 0.000000 0.000000 -0.000000 -0.000000 0.000001 -2.784652 6.517774 0.412298 -15.230260 44.985986 65.289642 0.000196 108.037453 -0.000209 -16.853116 6.710444 -1.340229 -1.895257 -6.833288 -7.092709 16.282194 -40.368436 -0.004915 -0.000000 -0.000004 -0.000001 6.401071 -6.926778 85.472338 6.401170 -6.926768 85.473158 0.000002 0.000001 0.000001 6.401077 -6.926736 85.472332 6.401148 -6.926747 85.473151 -0.000000 0.000001 -0.000002 6.401071 -6.926728 85.472345 6.401159 -6.926737 85.473151 0.000001 0.000001 -0.000000 6.401090 -6.926786 85.472345 6.401140 -6.926738 85.473144 0.000002 -0.000000 -0.000003 -0.000000 -0.000001 -0.000001 -0.000003 -0.000001 0.000001 -0.000000 -0.000001 -0.000001 0.000001 0.000001 0.000003 0.000000 0.000001 0.000003 0.000001 0.000001 0.000003 0.000001 0.000001 0.000005 0.000000 0.000002 -0.000000 0.000000 0.000002 -0.000000 0.000000 0.000002 -0.000000 0.000000 0.000002 -0.000000 0.000000 0.000002 -0.000000 0.000000 0.000002 -0.000000 0.000000 0.000002 -0.000000 0.000000 0.000000 -0.000000 0.000000 0.000000 -0.000000 
-3.310605 82.484230 6.988341 50.856827 -81.397024 53.009385 0.000000 0.000000 -0.000000 -34.507181 14.673821 38.816730 47.843426 -6.109312 -11.030573 -12.984996 13.184300 -17.565408 0.000000 -0.000002 0.000000 -0.000001 0.000001 0.000001 -41.216985 4.116796 -29.773635 63.228420 0.348214 1.897650 -26.269850 18.247911 16.223683 0.000000 0.000001 -0.000001 -0.000002 0.000002 -0.000001 -1.205236 3.394462 -1.886636 -2.660324 6.872235 -1.305391 -2.581744 6.885658 -1.375792 1.285190 6.738076 -0.125960 1.285188 6.738077 -0.125957 0.000000 0.000002 -0.000000 1.285122 6.738071 -0.125952 1.285263 6.738066 -0.125966 -0.000000 0.000000 0.000000 0.000000 0.000002 -0.000000 -6.279686 6.863986 -4.647063 10.349518 -6.656494 -20.043291 -0.000036 -118.626220 -0.000033 -41.662433 -8.738633 28.862727 2.109577 12.551540 5.943573 5.648336 28.305914 0.051830 -0.000002 0.000000 -0.000006 6.840612 6.881074 -89.661198 6.840600 6.881071 -89.661198 -0.000000 -0.000003 -0.000001 6.838653 6.881041 -89.644997 6.842542 6.881078 -89.677420 -0.000001 0.000001 0.000002 6.840592 6.881028 -89.661205 6.840601 6.881052 -89.661198 -0.000004 -0.000001 0.000000 10.924369 6.905794 -89.641124 6.842599 2.794849 -89.684885 -0.000001 -0.000002 -0.000000 0.000001 0.000000 -0.000001 0.000001 0.000000 -0.000001 -0.000000 0.000000 -0.000001 -0.000001 -0.000001 0.000003 -0.000001 -0.000001 0.000003 -0.000001 -0.000001 0.000003 -0.000001 -0.000001 0.000003 -4.615234 7.057421 0.501439 -14.321579 44.981099 66.300865 0.000053 107.815492 -0.000048 -17.009083 6.240749 -1.782247 -1.895256 -6.833297 -7.092703 16.282230 -40.368443 -0.004914 -0.000000 -0.000002 -0.000001 6.400445 -6.926729 85.467011 6.400697 -6.926714 85.469210 -0.000002 -0.000000 -0.000002 6.400434 -6.926691 85.467004 6.400678 -6.926710 85.469197 -0.000002 -0.000001 -0.000001 6.400429 -6.926694 85.466997 6.400696 -6.926710 85.469203 0.000003 0.000001 -0.000000 6.400452 -6.926737 85.466997 6.400665 -6.926701 85.469210 -0.000001 0.000002 -0.000003 0.000002 0.000001 -0.000002 0.000005 0.000001 -0.000004 0.000002 0.000001 -0.000002 0.000000 0.000000 -0.000001 -0.000001 0.000000 -0.000001 0.000000 0.000000 -0.000001 -0.000000 -0.000000 0.000001 -0.000000 0.000001 0.000000 -0.000000 0.000001 0.000000 -0.000000 0.000001 0.000000 -0.000000 0.000001 0.000000 -0.000000 0.000001 0.000000 -0.000000 0.000001 0.000000 -0.000000 0.000001 0.000000 -0.000000 -0.000000 0.000000 0.000000 0.000000 -0.000000 
